<svg width="29" height="29" viewBox="0 0 29 29" fill="none" xmlns="http://www.w3.org/2000/svg">
<path d="M21.3657 11.9532C21.1721 11.4885 20.7252 11.1877 20.2267 11.1877H17.8005V6.02592C17.8005 4.95036 16.9375 4.07422 15.8757 4.07422H13.1249C12.0642 4.07422 11.2002 4.94929 11.2002 6.02592V11.1877H8.77389C8.27546 11.1877 7.82852 11.4885 7.6349 11.9532C7.44129 12.4189 7.54016 12.9536 7.88721 13.3159L13.6131 19.288C13.8479 19.5334 14.163 19.6681 14.4998 19.6681C14.8366 19.6681 15.1517 19.5324 15.3865 19.288L21.1135 13.3159C21.4605 12.9536 21.5593 12.4189 21.3657 11.9532Z" fill="black"/>
<path d="M21.2657 24.1237H7.73592C5.40851 24.1237 3.51562 22.2044 3.51562 19.8443V17.997C3.51562 17.382 4.00789 16.8828 4.61446 16.8828C5.22104 16.8828 5.7133 17.382 5.7133 17.997V19.8443C5.7133 20.9752 6.6216 21.8963 7.73692 21.8963H21.2657C22.381 21.8963 23.2893 20.9752 23.2893 19.8443V17.997C23.2893 17.382 23.7816 16.8828 24.3881 16.8828C24.9947 16.8828 25.487 17.382 25.487 17.997V19.8443C25.487 22.2043 23.5941 24.1237 21.2667 24.1237H21.2657Z" fill="black"/>
</svg>
