<svg width="27" height="27" viewBox="0 0 27 27" fill="none" xmlns="http://www.w3.org/2000/svg">
<g clip-path="url(#clip0_88_2209)">
<path fill-rule="evenodd" clip-rule="evenodd" d="M9.10587 16.9631H22.9242C24.1582 16.9631 25.1602 15.9611 25.1602 14.7271C25.1602 13.4931 24.1582 12.4912 22.9242 12.4912H9.10587L11.5211 9.8162C12.3466 8.90245 12.2709 7.48247 11.3552 6.65892C10.4415 5.83721 9.02532 5.912 8.20162 6.82384L2.48229 13.1605C2.07 13.5737 1.8418 14.1433 1.8418 14.7262C1.8418 15.3101 2.0652 15.873 2.47748 16.2862L8.20148 22.6288C9.0251 23.5415 10.4412 23.6163 11.3551 22.7937C12.2707 21.97 12.3455 20.551 11.5209 19.6364L9.10572 16.9614L9.10587 16.9631Z" fill="black"/>
</g>
<defs>
<clipPath id="clip0_88_2209">
<rect width="27" height="27" fill="white"/>
</clipPath>
</defs>
</svg>
