<svg width="19" height="18" viewBox="0 0 19 18" fill="none" xmlns="http://www.w3.org/2000/svg">
<g clip-path="url(#clip0_88_1456)">
<path fill-rule="evenodd" clip-rule="evenodd" d="M11.8013 15.2726C12.0618 15.2726 12.273 15.0689 12.273 14.8182V11.1697L11.3297 11.1704V14.3637H7.04126V3.88837H11.3297V6.8617H12.273V3.43403C12.273 3.18273 12.0618 2.9796 11.8013 2.9796H7.04116V1.95487C7.04116 1.62348 6.68693 1.40733 6.37792 1.5395L2.04281 3.0063C1.84849 3.07141 1.72637 3.24653 1.72637 3.43403V14.8175C1.72637 15.0382 1.88898 15.2218 2.10489 15.2635L6.44 16.4816C6.7416 16.5662 7.04117 16.3462 7.04117 16.0467V15.2726L11.8013 15.2726ZM13.4875 10.3221L9.52009 10.3235C9.3062 10.3235 9.1328 10.1561 9.1328 9.9504V8.07923C9.1328 7.87415 9.30755 7.70813 9.52009 7.70813L13.4875 7.70879V6.58509C13.4875 6.27324 13.8687 6.0955 14.1217 6.29994L17.1235 8.72177C17.3131 8.86956 17.3253 9.1482 17.1323 9.3025L14.1339 11.6918C13.8674 11.9158 13.4875 11.7263 13.4875 11.4165L13.4875 10.3221Z" fill="black"/>
</g>
<defs>
<clipPath id="clip0_88_1456">
<rect width="19" height="18" fill="white" transform="matrix(-1 0 0 1 19 0)"/>
</clipPath>
</defs>
</svg>
