<svg width="20" height="21" viewBox="0 0 20 21" fill="none" xmlns="http://www.w3.org/2000/svg">
<path d="M16.3649 19.6243H3.2584C2.3097 19.6243 2.3097 18.1854 3.2584 18.1854H16.3649C17.3082 18.1854 17.3082 19.6243 16.3649 19.6243Z" fill="black"/>
<path d="M4.55747 9.06159C6.27731 6.48602 8.77673 4.70081 11.6542 3.75587C12.4097 3.50679 12.7785 4.66742 12.0113 4.90014C9.37866 5.70036 7.10874 7.3433 5.6447 9.77234L6.2015 10.0386C6.62751 10.2426 6.55482 10.8753 6.09427 10.9761L4.33298 11.3612L4.33161 11.3611C4.19055 11.392 4.04269 11.365 3.92076 11.2858C3.79952 11.2066 3.71425 11.0816 3.68385 10.9386L3.30341 9.16142C3.2039 8.69672 3.74552 8.36916 4.10531 8.67593L4.55747 9.06159Z" fill="black"/>
<path d="M6.42226 14.782C6.49629 14.7827 6.56621 14.8132 6.61763 14.8657C6.66904 14.919 6.69783 14.9902 6.69646 15.0643V17.6328H4.13281V15.3354C4.13281 15.0296 4.37821 14.782 4.6812 14.782L6.42226 14.782Z" fill="black"/>
<path d="M9.26214 11.3233C9.33549 11.324 9.40541 11.3544 9.45751 11.407C9.50892 11.4602 9.53702 11.5315 9.53634 11.6055V17.6322H7.2461V11.6041C7.24541 11.4526 7.36537 11.3274 7.51618 11.3232L9.26214 11.3233Z" fill="black"/>
<path d="M15.4855 8.07189V17.6321H12.9219V7.79934C12.9205 7.64646 13.0412 7.52056 13.1927 7.51709H14.9372C15.0825 7.51709 15.2224 7.57589 15.3252 7.67966C15.428 7.78411 15.4855 7.92524 15.4855 8.07189Z" fill="black"/>
<path d="M12.1 9.59371C12.1734 9.5944 12.2433 9.62484 12.2947 9.67741C12.3461 9.73068 12.3749 9.80193 12.3742 9.87595V17.6321H10.084V9.87454C10.0826 9.72166 10.2033 9.59576 10.3548 9.59229L12.1 9.59371Z" fill="black"/>
</svg>
