<svg width="32" height="21" viewBox="0 0 32 21" fill="none" xmlns="http://www.w3.org/2000/svg">
<path d="M21.6864 17.1061C21.3847 17.6361 20.7621 17.94 20.1071 17.94H11.636C10.9719 17.94 10.346 17.6372 10.0477 17.1061C9.91193 16.8655 9.74256 16.4408 9.72461 16.0504C9.72461 15.323 9.86819 14.6133 10.1464 13.9569C10.8284 12.3601 12.3 11.1006 14.023 10.7721C15.9074 10.4173 18.0701 10.4883 19.6943 11.6237C21.139 12.6262 22.0185 14.2939 22.0185 16.0413C22.0005 16.4405 21.8244 16.8632 21.6864 17.1061Z" fill="black"/>
<path d="M27.8071 16.2369C27.8071 17.2038 27.0085 17.9933 26.0213 17.9933H22.1088C22.3601 17.7449 22.5665 17.4433 22.7011 17.1062C22.8447 16.7869 22.9165 16.4232 22.9165 16.0505C22.9165 14.8352 22.5665 13.6998 21.9563 12.7327C21.7768 12.4399 21.5704 12.1649 21.3281 11.9077C21.5614 11.8633 23.3651 11.8456 23.3651 11.8456C25.8149 11.8456 27.8071 13.815 27.8071 16.2369Z" fill="black"/>
<path d="M9.77933 12.7327C9.17809 13.6996 8.82813 14.8351 8.82813 16.0506C8.82813 16.4232 8.89992 16.7869 9.0435 17.1063C9.1781 17.4434 9.38449 17.745 9.63576 17.9934H5.72326C4.73617 17.9934 3.9375 17.2039 3.9375 16.2369C3.9375 13.8151 5.92964 11.8457 8.37951 11.8457C8.37951 11.8457 10.1742 11.8634 10.4075 11.9078C10.1653 12.1651 9.95881 12.44 9.77933 12.7327Z" fill="black"/>
<path d="M25.6432 8.70514C25.6432 10.3019 24.3331 11.5972 22.7269 11.5972C21.1207 11.5972 19.8105 10.3021 19.8105 8.70514C19.8105 7.11722 21.1207 5.82214 22.7269 5.82214C24.3331 5.82214 25.6432 7.11731 25.6432 8.70514Z" fill="black"/>
<path d="M11.9767 8.70514C11.9767 10.3019 10.6665 11.5972 9.05112 11.5972C7.44483 11.5972 6.13477 10.3021 6.13477 8.70514C6.13477 7.11722 7.44491 5.82214 9.05112 5.82214C10.6664 5.82214 11.9767 7.11731 11.9767 8.70514Z" fill="black"/>
<path d="M19.3795 6.70048C19.3795 8.60108 17.8204 10.1424 15.8978 10.1424C13.9752 10.1424 12.416 8.60108 12.416 6.70048C12.416 4.79988 13.9752 3.25854 15.8978 3.25854C17.8204 3.25854 19.3795 4.79988 19.3795 6.70048Z" fill="black"/>
</svg>
