<svg width="22" height="22" viewBox="0 0 22 22" fill="none" xmlns="http://www.w3.org/2000/svg">
<g clip-path="url(#clip0_88_1511)">
<path d="M15.9487 1.41296H6.73577C6.03766 1.41296 5.36813 1.69029 4.87449 2.18393C4.38084 2.67758 4.10352 3.3471 4.10352 4.04522V19.1807C4.10335 19.2885 4.12967 19.3947 4.18016 19.4899C4.23065 19.5852 4.30376 19.6665 4.39306 19.7269C4.48198 19.7869 4.58423 19.8243 4.6909 19.8358C4.79756 19.8472 4.90542 19.8325 5.00506 19.7927L6.40674 19.2334L7.80842 19.7927C7.96477 19.855 8.13904 19.855 8.29539 19.7927L9.69706 19.2334L11.0987 19.7927C11.2551 19.855 11.4294 19.855 11.5857 19.7927L12.9874 19.2334L14.3891 19.7927C14.5454 19.855 14.7197 19.855 14.876 19.7927L16.2777 19.2334L17.6794 19.7927C17.7566 19.8243 17.8394 19.84 17.9229 19.8388C18.0541 19.8391 18.1825 19.8001 18.2914 19.7269C18.3807 19.6665 18.4538 19.5852 18.5043 19.4899C18.5548 19.3947 18.5811 19.2885 18.5809 19.1807V4.04522C18.5809 3.3471 18.3036 2.67758 17.81 2.18393C17.3163 1.69029 16.6468 1.41296 15.9487 1.41296ZM7.39384 15.8904C7.21931 15.8904 7.05193 15.8211 6.92852 15.6976C6.80511 15.5742 6.73577 15.4068 6.73577 15.2323C6.73577 15.0578 6.80511 14.8904 6.92852 14.767C7.05193 14.6436 7.21931 14.5743 7.39384 14.5743C7.56837 14.5743 7.73575 14.6436 7.85916 14.767C7.98257 14.8904 8.0519 15.0578 8.0519 15.2323C8.0519 15.4068 7.98257 15.5742 7.85916 15.6976C7.73575 15.8211 7.56837 15.8904 7.39384 15.8904ZM7.39384 13.2581C7.21931 13.2581 7.05193 13.1888 6.92852 13.0654C6.80511 12.942 6.73577 12.7746 6.73577 12.6001C6.73577 12.4255 6.80511 12.2582 6.92852 12.1347C7.05193 12.0113 7.21931 11.942 7.39384 11.942C7.56837 11.942 7.73575 12.0113 7.85916 12.1347C7.98257 12.2582 8.0519 12.4255 8.0519 12.6001C8.0519 12.7746 7.98257 12.942 7.85916 13.0654C7.73575 13.1888 7.56837 13.2581 7.39384 13.2581ZM8.70997 7.33554C8.70997 7.16102 8.7793 6.99363 8.90271 6.87022C9.02612 6.74681 9.1935 6.67748 9.36803 6.67748H10.6842V5.36135C10.6842 5.18682 10.7535 5.01944 10.8769 4.89603C11.0003 4.77262 11.1677 4.70329 11.3422 4.70329C11.5168 4.70329 11.6841 4.77262 11.8075 4.89603C11.931 5.01944 12.0003 5.18682 12.0003 5.36135V6.67748H13.3164C13.4909 6.67748 13.6583 6.74681 13.7817 6.87022C13.9052 6.99363 13.9745 7.16102 13.9745 7.33554C13.9745 7.51007 13.9052 7.67746 13.7817 7.80087C13.6583 7.92428 13.4909 7.99361 13.3164 7.99361H12.0003V9.30974C12.0003 9.48427 11.931 9.65165 11.8075 9.77506C11.6841 9.89847 11.5168 9.9678 11.3422 9.9678C11.1677 9.9678 11.0003 9.89847 10.8769 9.77506C10.7535 9.65165 10.6842 9.48427 10.6842 9.30974V7.99361H9.36803C9.1935 7.99361 9.02612 7.92428 8.90271 7.80087C8.7793 7.67746 8.70997 7.51007 8.70997 7.33554ZM15.2906 15.8904H10.0261C9.85157 15.8904 9.68419 15.8211 9.56078 15.6976C9.43736 15.5742 9.36803 15.4068 9.36803 15.2323C9.36803 15.0578 9.43736 14.8904 9.56078 14.767C9.68419 14.6436 9.85157 14.5743 10.0261 14.5743H15.2906C15.4651 14.5743 15.6325 14.6436 15.7559 14.767C15.8793 14.8904 15.9487 15.0578 15.9487 15.2323C15.9487 15.4068 15.8793 15.5742 15.7559 15.6976C15.6325 15.8211 15.4651 15.8904 15.2906 15.8904ZM15.2906 13.2581H10.0261C9.85157 13.2581 9.68419 13.1888 9.56078 13.0654C9.43736 12.942 9.36803 12.7746 9.36803 12.6001C9.36803 12.4255 9.43736 12.2582 9.56078 12.1347C9.68419 12.0113 9.85157 11.942 10.0261 11.942H15.2906C15.4651 11.942 15.6325 12.0113 15.7559 12.1347C15.8793 12.2582 15.9487 12.4255 15.9487 12.6001C15.9487 12.7746 15.8793 12.942 15.7559 13.0654C15.6325 13.1888 15.4651 13.2581 15.2906 13.2581Z" fill="black"/>
</g>
<defs>
<clipPath id="clip0_88_1511">
<rect width="21.0581" height="21.0581" fill="white" transform="translate(0.8125 0.0968018)"/>
</clipPath>
</defs>
</svg>
