<svg width="34" height="29" viewBox="0 0 34 29" fill="none" xmlns="http://www.w3.org/2000/svg">
<g clip-path="url(#clip0_88_1625)">
<path d="M17.0003 13.0088C14.2607 13.0088 12.0332 15.138 12.0332 17.755C12.3061 24.0513 21.696 24.0492 21.9689 17.755C21.9689 15.138 19.7401 13.0088 17.0018 13.0088H17.0003ZM17.0003 20.7604C15.2641 20.7604 13.8513 19.4126 13.8513 17.755C14.0239 13.7681 19.9775 13.7693 20.1502 17.755C20.1502 19.4115 18.7376 20.7604 17.0012 20.7604H17.0003Z" fill="black"/>
<path d="M31.4226 17.3181C24.6177 5.84651 9.38163 5.84769 2.57823 17.3181C2.41403 17.5886 2.41403 17.9215 2.57823 18.192C9.38318 29.6635 24.6192 29.6623 31.4226 18.192C31.5868 17.9215 31.5868 17.5885 31.4226 17.3181ZM17.0004 25.1055C12.0658 25.1055 7.39943 22.3671 4.42412 17.7549C10.5757 8.01145 23.4283 8.01381 29.5776 17.7549C26.6026 22.367 21.9347 25.1055 17.0013 25.1055H17.0004Z" fill="black"/>
</g>
<defs>
<clipPath id="clip0_88_1625">
<rect width="34" height="29" fill="white"/>
</clipPath>
</defs>
</svg>
